<svg width="135" height="20" viewBox="0 0 135 20" fill="none" xmlns="http://www.w3.org/2000/svg">
<path d="M9.89714 9.85847C11.68 9.24133 12.2514 7.32133 12.2514 6.13275C12.2514 3.43561 10.2171 0.921326 6.99429 0.921326H0V19.4128H7.24572C11.52 19.4128 13.3714 17.4699 13.3714 14.5442C13.3714 12.487 12.64 10.2699 9.89714 9.85847ZM6.44572 2.7499C9.07429 2.7499 10.3543 4.07561 10.3543 5.92704C10.3543 8.28133 8.98286 9.05847 6.42286 9.05847C5.30286 9.05847 3.33714 9.05847 1.85143 9.05847V2.7499H6.44572ZM7.58857 17.607H1.85143V10.8642H7.54286C10.0571 10.8642 11.52 12.5328 11.52 14.407C11.52 16.7156 9.92 17.607 7.58857 17.607Z" fill="black"/>
<path d="M30.4763 3.0699V19.4128H32.3505V0.921326H29.882L18.6591 17.2642V0.921326H16.7848V19.4128H19.2077L30.4763 3.0699Z" fill="black"/>
<path d="M48.168 19.4128H50.0423V0.921326H48.168V8.60133H37.6538V0.921326H35.7795V19.4128H37.6538V10.3842H48.168V19.4128Z" fill="black"/>
<path d="M83.2618 14.1099L85.1589 19.4128H87.1704L80.2447 0.921326H78.1418L71.2389 19.4128H73.2047L75.1018 14.1099H83.2618ZM79.1932 2.65847L82.6218 12.3042H75.7418L79.1932 2.65847Z" fill="black"/>
<path d="M99.2222 9.85847C101.005 9.24133 101.576 7.32133 101.576 6.13275C101.576 3.43561 99.5422 0.921326 96.3193 0.921326H89.325V19.4128H96.5707C100.845 19.4128 102.696 17.4699 102.696 14.5442C102.696 12.487 101.965 10.2699 99.2222 9.85847ZM95.7707 2.7499C98.3993 2.7499 99.6793 4.07561 99.6793 5.92704C99.6793 8.28133 98.3079 9.05847 95.7479 9.05847C94.6279 9.05847 92.6622 9.05847 91.1764 9.05847V2.7499H95.7707ZM96.9136 17.607H91.1764V10.8642H96.8679C99.3822 10.8642 100.845 12.5328 100.845 14.407C100.845 16.7156 99.245 17.607 96.9136 17.607Z" fill="black"/>
<path d="M107.961 2.72704H118.521V0.921326H106.11V19.4128H118.521V17.6299H107.961V10.3613L116.853 10.407V8.60133H107.961V2.72704Z" fill="black"/>
<path d="M128.45 0.921326H120.953V19.4128H122.85V11.7328H128.473C132.427 11.7328 134.507 9.03561 134.507 6.38418C134.507 3.73275 132.381 0.921326 128.45 0.921326ZM128.816 9.85847H122.85V2.79561H128.816C130.598 2.79561 132.656 4.00704 132.656 6.38418C132.656 8.71561 130.621 9.85847 128.816 9.85847Z" fill="black"/>
<path d="M65.83 11.3154C66.7431 11.3154 67.656 11.0696 68.4704 10.578L67.91 9.64989C66.7054 10.3771 65.2267 10.4214 63.9886 9.78305C63.9841 9.75115 63.979 9.71949 63.9733 9.68798C65.572 9.48091 66.9899 8.52995 67.7843 7.08966L66.835 6.56603C66.1551 7.79857 64.8957 8.57603 63.504 8.64209C63.4844 8.61697 63.4643 8.59222 63.4437 8.56793C64.7253 7.58926 65.4782 6.05671 65.446 4.41173L64.3621 4.43291C64.3896 5.83977 63.6886 7.1426 62.5166 7.89567C62.4869 7.88356 62.457 7.87182 62.4267 7.86091C63.0466 6.37287 62.9321 4.66979 62.082 3.26166L61.1539 3.82197C61.8812 5.02657 61.9255 6.50532 61.2871 7.74342C61.2551 7.74787 61.2233 7.75307 61.1918 7.75878C60.9847 6.16002 60.034 4.74217 58.5937 3.94769L58.0701 4.89698C59.3026 5.57684 60.0805 6.83597 60.1462 8.22799C60.1211 8.24765 60.0963 8.26767 60.072 8.28827C59.0935 7.00687 57.5616 6.25445 55.9157 6.28596L55.9369 7.36987C57.3436 7.34316 58.6466 8.04351 59.3996 9.21541C59.3875 9.24515 59.3758 9.27503 59.3649 9.30535C57.8768 8.68542 56.1738 8.79986 54.7656 9.64996L55.3259 10.5781C56.5305 9.85085 58.0093 9.80658 59.2474 10.4449C59.2518 10.4769 59.257 10.5087 59.2627 10.5403C57.664 10.7474 56.2461 11.6979 55.4517 13.1383L56.401 13.6619C57.0808 12.4294 58.3406 11.6516 59.732 11.5858C59.7516 11.6109 59.7716 11.6357 59.7922 11.66C58.5107 12.6387 57.7578 14.1713 57.7899 15.8162L58.8738 15.7951C58.8464 14.3882 59.5474 13.0854 60.7194 12.3323C60.7491 12.3444 60.779 12.3561 60.8093 12.3671C60.1894 13.8551 60.3038 15.5582 61.1539 16.9663L62.082 16.406C61.3548 15.2014 61.3105 13.7226 61.9489 12.4845C61.9809 12.4801 62.0126 12.4749 62.0442 12.4692C62.2513 14.0679 63.2019 15.4858 64.6423 16.2803L65.1659 15.331C63.9334 14.6511 63.1555 13.392 63.0898 12C63.1149 11.9803 63.1397 11.9603 63.164 11.9397C64.1226 13.1949 65.6125 13.943 67.219 13.943C67.2527 13.943 67.2864 13.9427 67.3202 13.942L67.299 12.8581C65.8925 12.8849 64.5894 12.1845 63.8363 11.0126C63.8484 10.9828 63.8602 10.9529 63.8711 10.9226C64.4986 11.184 65.1642 11.3154 65.83 11.3154ZM62.9279 10.1139C62.9279 10.8362 62.3403 11.4238 61.618 11.4238C60.8958 11.4238 60.3082 10.8362 60.3082 10.1139C60.3082 9.39169 60.8958 8.80409 61.618 8.80409C62.3403 8.80409 62.9279 9.39169 62.9279 10.1139Z" fill="black"/>
<path d="M70.2257 5.7666C69.2387 3.77172 67.5905 2.18079 65.562 1.26488C63.5335 0.348963 61.2502 0.164739 59.1011 0.743592C56.952 1.32245 55.0701 2.62856 53.7761 4.43939C52.482 6.25023 51.8559 8.45374 52.0043 10.6745C52.1528 12.8952 53.0667 14.9958 54.5903 16.6182C56.1138 18.2407 58.1529 19.2847 60.3599 19.5723C62.5669 19.8599 64.8054 19.3734 66.6939 18.1956C68.5824 17.0179 70.0042 15.2217 70.7168 13.1132L69.0705 12.5567C68.4865 14.2843 67.3216 15.756 65.7743 16.721C64.2269 17.6861 62.3928 18.0847 60.5845 17.849C58.7761 17.6133 57.1055 16.7579 55.8571 15.4286C54.6088 14.0992 53.86 12.3781 53.7383 10.5585C53.6167 8.73898 54.1297 6.93353 55.19 5.44982C56.2503 3.9661 57.7922 2.89593 59.5531 2.42165C61.314 1.94736 63.1848 2.09831 64.8469 2.84876C66.5089 3.59922 67.8594 4.90276 68.6681 6.53726L70.2257 5.7666Z" fill="black"/>
</svg>
